<?xml version="1.0" encoding="us-ascii" standalone="no"?><svg xmlns="http://www.w3.org/2000/svg" xmlns:xlink="http://www.w3.org/1999/xlink" contentStyleType="text/css" height="833px" preserveAspectRatio="none" style="width:1455px;height:833px;background:#1B1B1B;" version="1.1" viewBox="0 0 1455 833" width="1455px" zoomAndPan="magnify"><defs/><g><rect fill="#1B1B1B" height="833" style="stroke:none;stroke-width:1.0;" width="1455" x="0" y="0"/><!--class account_emailaddress--><g id="elem_account_emailaddress"><rect codeLine="1" fill="#313139" height="129.4844" id="account_emailaddress" rx="2.5" ry="2.5" style="stroke:#E7E7E7;stroke-width:0.5;" width="187" x="1221.5" y="343.86"/><ellipse cx="1236.5" cy="359.86" fill="#2E5233" rx="11" ry="11" style="stroke:#E7E7E7;stroke-width:1.0;"/><path d="M1239.4688,365.5006 Q1238.8906,365.7975 1238.25,365.9381 Q1237.6094,366.0944 1236.9063,366.0944 Q1234.4063,366.0944 1233.0781,364.4538 Q1231.7656,362.7975 1231.7656,359.6725 Q1231.7656,356.5475 1233.0781,354.8913 Q1234.4063,353.235 1236.9063,353.235 Q1237.6094,353.235 1238.25,353.3913 Q1238.9063,353.5475 1239.4688,353.8444 L1239.4688,356.5631 Q1238.8438,355.985 1238.25,355.7194 Q1237.6563,355.4381 1237.0313,355.4381 Q1235.6875,355.4381 1235,356.5163 Q1234.3125,357.5788 1234.3125,359.6725 Q1234.3125,361.7663 1235,362.8444 Q1235.6875,363.9069 1237.0313,363.9069 Q1237.6563,363.9069 1238.25,363.6413 Q1238.8438,363.36 1239.4688,362.7819 L1239.4688,365.5006 Z " fill="#FFFFFF"/><text fill="#FFFFFF" font-family="sans-serif" font-size="14" lengthAdjust="spacing" textLength="155" x="1250.5" y="364.7067">account_emailaddress</text><line style="stroke:#E7E7E7;stroke-width:0.5;" x1="1222.5" x2="1407.5" y1="375.86" y2="375.86"/><ellipse cx="1232.5" cy="389.5084" fill="none" rx="3" ry="3" style="stroke:#038048;stroke-width:1.0;"/><text fill="#FFFFFF" font-family="sans-serif" font-size="14" lengthAdjust="spacing" textLength="70" x="1241.5" y="392.8551">id: integer</text><ellipse cx="1232.5" cy="405.8053" fill="none" rx="3" ry="3" style="stroke:#038048;stroke-width:1.0;"/><text fill="#FFFFFF" font-family="sans-serif" font-size="14" lengthAdjust="spacing" textLength="114" x="1241.5" y="409.152">verified: boolean</text><ellipse cx="1232.5" cy="422.1022" fill="none" rx="3" ry="3" style="stroke:#038048;stroke-width:1.0;"/><text fill="#FFFFFF" font-family="sans-serif" font-size="14" lengthAdjust="spacing" textLength="115" x="1241.5" y="425.4489">primary: boolean</text><ellipse cx="1232.5" cy="438.3991" fill="none" rx="3" ry="3" style="stroke:#038048;stroke-width:1.0;"/><text fill="#FFFFFF" font-family="sans-serif" font-size="14" lengthAdjust="spacing" textLength="89" x="1241.5" y="441.7457">user_id: uuid</text><line style="stroke:#E7E7E7;stroke-width:0.5;" x1="1222.5" x2="1407.5" y1="449.0475" y2="449.0475"/><ellipse cx="1232.5" cy="462.6959" fill="#84BE84" rx="3" ry="3" style="stroke:#038048;stroke-width:1.0;"/><text fill="#FFFFFF" font-family="sans-serif" font-size="14" lengthAdjust="spacing" textLength="132" x="1241.5" y="466.0426">email: varchar(254)</text></g><!--class account_emailconfirmation--><g id="elem_account_emailconfirmation"><rect codeLine="9" fill="#313139" height="129.4844" id="account_emailconfirmation" rx="2.5" ry="2.5" style="stroke:#E7E7E7;stroke-width:0.5;" width="266" x="1182" y="39.59"/><ellipse cx="1219.5" cy="55.59" fill="#2E5233" rx="11" ry="11" style="stroke:#E7E7E7;stroke-width:1.0;"/><path d="M1222.4688,61.2306 Q1221.8906,61.5275 1221.25,61.6681 Q1220.6094,61.8244 1219.9063,61.8244 Q1217.4063,61.8244 1216.0781,60.1838 Q1214.7656,58.5275 1214.7656,55.4025 Q1214.7656,52.2775 1216.0781,50.6213 Q1217.4063,48.965 1219.9063,48.965 Q1220.6094,48.965 1221.25,49.1213 Q1221.9063,49.2775 1222.4688,49.5744 L1222.4688,52.2931 Q1221.8438,51.715 1221.25,51.4494 Q1220.6563,51.1681 1220.0313,51.1681 Q1218.6875,51.1681 1218,52.2463 Q1217.3125,53.3088 1217.3125,55.4025 Q1217.3125,57.4963 1218,58.5744 Q1218.6875,59.6369 1220.0313,59.6369 Q1220.6563,59.6369 1221.25,59.3713 Q1221.8438,59.09 1222.4688,58.5119 L1222.4688,61.2306 Z " fill="#FFFFFF"/><text fill="#FFFFFF" font-family="sans-serif" font-size="14" lengthAdjust="spacing" textLength="184" x="1238.5" y="60.4367">account_emailconfirmation</text><line style="stroke:#E7E7E7;stroke-width:0.5;" x1="1183" x2="1447" y1="71.59" y2="71.59"/><ellipse cx="1193" cy="85.2384" fill="none" rx="3" ry="3" style="stroke:#038048;stroke-width:1.0;"/><text fill="#FFFFFF" font-family="sans-serif" font-size="14" lengthAdjust="spacing" textLength="70" x="1202" y="88.5851">id: integer</text><ellipse cx="1193" cy="101.5353" fill="none" rx="3" ry="3" style="stroke:#038048;stroke-width:1.0;"/><text fill="#FFFFFF" font-family="sans-serif" font-size="14" lengthAdjust="spacing" textLength="240" x="1202" y="104.882">created: timestamp with time zone</text><ellipse cx="1193" cy="117.8322" fill="none" rx="3" ry="3" style="stroke:#038048;stroke-width:1.0;"/><text fill="#FFFFFF" font-family="sans-serif" font-size="14" lengthAdjust="spacing" textLength="218" x="1202" y="121.1789">sent: timestamp with time zone</text><ellipse cx="1193" cy="134.1291" fill="none" rx="3" ry="3" style="stroke:#038048;stroke-width:1.0;"/><text fill="#FFFFFF" font-family="sans-serif" font-size="14" lengthAdjust="spacing" textLength="176" x="1202" y="137.4757">email_address_id: integer</text><line style="stroke:#E7E7E7;stroke-width:0.5;" x1="1183" x2="1447" y1="144.7775" y2="144.7775"/><ellipse cx="1193" cy="158.4259" fill="#84BE84" rx="3" ry="3" style="stroke:#038048;stroke-width:1.0;"/><text fill="#FFFFFF" font-family="sans-serif" font-size="14" lengthAdjust="spacing" textLength="111" x="1202" y="161.7726">key: varchar(64)</text></g><!--class chat_conversation--><g id="elem_chat_conversation"><rect codeLine="17" fill="#313139" height="96.8906" id="chat_conversation" rx="2.5" ry="2.5" style="stroke:#E7E7E7;stroke-width:0.5;" width="292" x="32" y="672.57"/><ellipse cx="110.75" cy="688.57" fill="#2E5233" rx="11" ry="11" style="stroke:#E7E7E7;stroke-width:1.0;"/><path d="M113.7188,694.2106 Q113.1406,694.5075 112.5,694.6481 Q111.8594,694.8044 111.1563,694.8044 Q108.6563,694.8044 107.3281,693.1637 Q106.0156,691.5075 106.0156,688.3825 Q106.0156,685.2575 107.3281,683.6012 Q108.6563,681.945 111.1563,681.945 Q111.8594,681.945 112.5,682.1012 Q113.1563,682.2575 113.7188,682.5544 L113.7188,685.2731 Q113.0938,684.695 112.5,684.4294 Q111.9063,684.1481 111.2813,684.1481 Q109.9375,684.1481 109.25,685.2262 Q108.5625,686.2887 108.5625,688.3825 Q108.5625,690.4762 109.25,691.5544 Q109.9375,692.6169 111.2813,692.6169 Q111.9063,692.6169 112.5,692.3512 Q113.0938,692.07 113.7188,691.4919 L113.7188,694.2106 Z " fill="#FFFFFF"/><text fill="#FFFFFF" font-family="sans-serif" font-size="14" lengthAdjust="spacing" textLength="126" x="131.25" y="693.4167">chat_conversation</text><line style="stroke:#E7E7E7;stroke-width:0.5;" x1="33" x2="323" y1="704.57" y2="704.57"/><ellipse cx="43" cy="718.2184" fill="none" rx="3" ry="3" style="stroke:#038048;stroke-width:1.0;"/><text fill="#FFFFFF" font-family="sans-serif" font-size="14" lengthAdjust="spacing" textLength="51" x="52" y="721.5651">id: uuid</text><ellipse cx="43" cy="734.5153" fill="none" rx="3" ry="3" style="stroke:#038048;stroke-width:1.0;"/><text fill="#FFFFFF" font-family="sans-serif" font-size="14" lengthAdjust="spacing" textLength="260" x="52" y="737.862">created_at: timestamp with time zone</text><ellipse cx="43" cy="750.8122" fill="none" rx="3" ry="3" style="stroke:#038048;stroke-width:1.0;"/><text fill="#FFFFFF" font-family="sans-serif" font-size="14" lengthAdjust="spacing" textLength="266" x="52" y="754.1589">modified_at: timestamp with time zone</text><line style="stroke:#E7E7E7;stroke-width:0.5;" x1="33" x2="323" y1="761.4606" y2="761.4606"/></g><!--class chat_conversation_users--><g id="elem_chat_conversation_users"><rect codeLine="23" fill="#313139" height="96.8906" id="chat_conversation_users" rx="2.5" ry="2.5" style="stroke:#E7E7E7;stroke-width:0.5;" width="204" x="7" y="360.16"/><ellipse cx="22" cy="376.16" fill="#2E5233" rx="11" ry="11" style="stroke:#E7E7E7;stroke-width:1.0;"/><path d="M24.9688,381.8006 Q24.3906,382.0975 23.75,382.2381 Q23.1094,382.3944 22.4063,382.3944 Q19.9063,382.3944 18.5781,380.7538 Q17.2656,379.0975 17.2656,375.9725 Q17.2656,372.8475 18.5781,371.1913 Q19.9063,369.535 22.4063,369.535 Q23.1094,369.535 23.75,369.6913 Q24.4063,369.8475 24.9688,370.1444 L24.9688,372.8631 Q24.3438,372.285 23.75,372.0194 Q23.1563,371.7381 22.5313,371.7381 Q21.1875,371.7381 20.5,372.8163 Q19.8125,373.8788 19.8125,375.9725 Q19.8125,378.0663 20.5,379.1444 Q21.1875,380.2069 22.5313,380.2069 Q23.1563,380.2069 23.75,379.9413 Q24.3438,379.66 24.9688,379.0819 L24.9688,381.8006 Z " fill="#FFFFFF"/><text fill="#FFFFFF" font-family="sans-serif" font-size="14" lengthAdjust="spacing" textLength="172" x="36" y="381.0067">chat_conversation_users</text><line style="stroke:#E7E7E7;stroke-width:0.5;" x1="8" x2="210" y1="392.16" y2="392.16"/><ellipse cx="18" cy="405.8084" fill="none" rx="3" ry="3" style="stroke:#038048;stroke-width:1.0;"/><text fill="#FFFFFF" font-family="sans-serif" font-size="14" lengthAdjust="spacing" textLength="59" x="27" y="409.1551">id: bigint</text><ellipse cx="18" cy="422.1053" fill="none" rx="3" ry="3" style="stroke:#038048;stroke-width:1.0;"/><text fill="#FFFFFF" font-family="sans-serif" font-size="14" lengthAdjust="spacing" textLength="147" x="27" y="425.452">conversation_id: uuid</text><ellipse cx="18" cy="438.4022" fill="none" rx="3" ry="3" style="stroke:#038048;stroke-width:1.0;"/><text fill="#FFFFFF" font-family="sans-serif" font-size="14" lengthAdjust="spacing" textLength="89" x="27" y="441.7489">user_id: uuid</text><line style="stroke:#E7E7E7;stroke-width:0.5;" x1="8" x2="210" y1="449.0506" y2="449.0506"/></g><!--class chat_conversationmessage--><g id="elem_chat_conversationmessage"><rect codeLine="29" fill="#313139" height="145.7813" id="chat_conversationmessage" rx="2.5" ry="2.5" style="stroke:#E7E7E7;stroke-width:0.5;" width="286" x="292" y="335.71"/><ellipse cx="335.8" cy="351.71" fill="#2E5233" rx="11" ry="11" style="stroke:#E7E7E7;stroke-width:1.0;"/><path d="M338.7688,357.3506 Q338.1906,357.6475 337.55,357.7881 Q336.9094,357.9444 336.2063,357.9444 Q333.7063,357.9444 332.3781,356.3038 Q331.0656,354.6475 331.0656,351.5225 Q331.0656,348.3975 332.3781,346.7413 Q333.7063,345.085 336.2063,345.085 Q336.9094,345.085 337.55,345.2413 Q338.2063,345.3975 338.7688,345.6944 L338.7688,348.4131 Q338.1438,347.835 337.55,347.5694 Q336.9563,347.2881 336.3313,347.2881 Q334.9875,347.2881 334.3,348.3663 Q333.6125,349.4288 333.6125,351.5225 Q333.6125,353.6163 334.3,354.6944 Q334.9875,355.7569 336.3313,355.7569 Q336.9563,355.7569 337.55,355.4913 Q338.1438,355.21 338.7688,354.6319 L338.7688,357.3506 Z " fill="#FFFFFF"/><text fill="#FFFFFF" font-family="sans-serif" font-size="14" lengthAdjust="spacing" textLength="190" x="356.2" y="356.5567">chat_conversationmessage</text><line style="stroke:#E7E7E7;stroke-width:0.5;" x1="293" x2="577" y1="367.71" y2="367.71"/><ellipse cx="303" cy="381.3584" fill="none" rx="3" ry="3" style="stroke:#038048;stroke-width:1.0;"/><text fill="#FFFFFF" font-family="sans-serif" font-size="14" lengthAdjust="spacing" textLength="51" x="312" y="384.7051">id: uuid</text><ellipse cx="303" cy="397.6553" fill="none" rx="3" ry="3" style="stroke:#038048;stroke-width:1.0;"/><text fill="#FFFFFF" font-family="sans-serif" font-size="14" lengthAdjust="spacing" textLength="69" x="312" y="401.002">body: text</text><ellipse cx="303" cy="413.9522" fill="none" rx="3" ry="3" style="stroke:#038048;stroke-width:1.0;"/><text fill="#FFFFFF" font-family="sans-serif" font-size="14" lengthAdjust="spacing" textLength="260" x="312" y="417.2989">created_at: timestamp with time zone</text><ellipse cx="303" cy="430.2491" fill="none" rx="3" ry="3" style="stroke:#038048;stroke-width:1.0;"/><text fill="#FFFFFF" font-family="sans-serif" font-size="14" lengthAdjust="spacing" textLength="147" x="312" y="433.5957">conversation_id: uuid</text><ellipse cx="303" cy="446.5459" fill="none" rx="3" ry="3" style="stroke:#038048;stroke-width:1.0;"/><text fill="#FFFFFF" font-family="sans-serif" font-size="14" lengthAdjust="spacing" textLength="134" x="312" y="449.8926">created_by_id: uuid</text><ellipse cx="303" cy="462.8428" fill="none" rx="3" ry="3" style="stroke:#038048;stroke-width:1.0;"/><text fill="#FFFFFF" font-family="sans-serif" font-size="14" lengthAdjust="spacing" textLength="110" x="312" y="466.1895">sent_to_id: uuid</text><line style="stroke:#E7E7E7;stroke-width:0.5;" x1="293" x2="577" y1="473.4913" y2="473.4913"/></g><!--class property_property--><g id="elem_property_property"><rect codeLine="38" fill="#313139" height="259.8594" id="property_property" rx="2.5" ry="2.5" style="stroke:#E7E7E7;stroke-width:0.5;" width="286" x="740" y="278.67"/><ellipse cx="817.25" cy="294.67" fill="#2E5233" rx="11" ry="11" style="stroke:#E7E7E7;stroke-width:1.0;"/><path d="M820.2188,300.3106 Q819.6406,300.6075 819,300.7481 Q818.3594,300.9044 817.6563,300.9044 Q815.1563,300.9044 813.8281,299.2637 Q812.5156,297.6075 812.5156,294.4825 Q812.5156,291.3575 813.8281,289.7012 Q815.1563,288.045 817.6563,288.045 Q818.3594,288.045 819,288.2012 Q819.6563,288.3575 820.2188,288.6544 L820.2188,291.3731 Q819.5938,290.795 819,290.5294 Q818.4063,290.2481 817.7813,290.2481 Q816.4375,290.2481 815.75,291.3262 Q815.0625,292.3887 815.0625,294.4825 Q815.0625,296.5762 815.75,297.6544 Q816.4375,298.7169 817.7813,298.7169 Q818.4063,298.7169 819,298.4512 Q819.5938,298.17 820.2188,297.5919 L820.2188,300.3106 Z " fill="#FFFFFF"/><text fill="#FFFFFF" font-family="sans-serif" font-size="14" lengthAdjust="spacing" textLength="123" x="837.75" y="299.5167">property_property</text><line style="stroke:#E7E7E7;stroke-width:0.5;" x1="741" x2="1025" y1="310.67" y2="310.67"/><ellipse cx="751" cy="324.3184" fill="none" rx="3" ry="3" style="stroke:#038048;stroke-width:1.0;"/><text fill="#FFFFFF" font-family="sans-serif" font-size="14" lengthAdjust="spacing" textLength="51" x="760" y="327.6651">id: uuid</text><ellipse cx="751" cy="340.6153" fill="none" rx="3" ry="3" style="stroke:#038048;stroke-width:1.0;"/><text fill="#FFFFFF" font-family="sans-serif" font-size="14" lengthAdjust="spacing" textLength="112" x="760" y="343.962">description: text</text><ellipse cx="751" cy="356.9122" fill="none" rx="3" ry="3" style="stroke:#038048;stroke-width:1.0;"/><text fill="#FFFFFF" font-family="sans-serif" font-size="14" lengthAdjust="spacing" textLength="164" x="760" y="360.2589">price_per_night: integer</text><ellipse cx="751" cy="373.2091" fill="none" rx="3" ry="3" style="stroke:#038048;stroke-width:1.0;"/><text fill="#FFFFFF" font-family="sans-serif" font-size="14" lengthAdjust="spacing" textLength="129" x="760" y="376.5557">bedrooms: integer</text><ellipse cx="751" cy="389.5059" fill="none" rx="3" ry="3" style="stroke:#038048;stroke-width:1.0;"/><text fill="#FFFFFF" font-family="sans-serif" font-size="14" lengthAdjust="spacing" textLength="133" x="760" y="392.8526">bathrooms: integer</text><ellipse cx="751" cy="405.8028" fill="none" rx="3" ry="3" style="stroke:#038048;stroke-width:1.0;"/><text fill="#FFFFFF" font-family="sans-serif" font-size="14" lengthAdjust="spacing" textLength="106" x="760" y="409.1495">guests: integer</text><ellipse cx="751" cy="422.0997" fill="none" rx="3" ry="3" style="stroke:#038048;stroke-width:1.0;"/><text fill="#FFFFFF" font-family="sans-serif" font-size="14" lengthAdjust="spacing" textLength="260" x="760" y="425.4464">created_at: timestamp with time zone</text><ellipse cx="751" cy="438.3966" fill="none" rx="3" ry="3" style="stroke:#038048;stroke-width:1.0;"/><text fill="#FFFFFF" font-family="sans-serif" font-size="14" lengthAdjust="spacing" textLength="113" x="760" y="441.7432">landlord_id: uuid</text><line style="stroke:#E7E7E7;stroke-width:0.5;" x1="741" x2="1025" y1="449.045" y2="449.045"/><ellipse cx="751" cy="462.6934" fill="#84BE84" rx="3" ry="3" style="stroke:#038048;stroke-width:1.0;"/><text fill="#FFFFFF" font-family="sans-serif" font-size="14" lengthAdjust="spacing" textLength="121" x="760" y="466.0401">title: varchar(255)</text><ellipse cx="751" cy="478.9903" fill="#84BE84" rx="3" ry="3" style="stroke:#038048;stroke-width:1.0;"/><text fill="#FFFFFF" font-family="sans-serif" font-size="14" lengthAdjust="spacing" textLength="148" x="760" y="482.337">country: varchar(255)</text><ellipse cx="751" cy="495.2872" fill="#84BE84" rx="3" ry="3" style="stroke:#038048;stroke-width:1.0;"/><text fill="#FFFFFF" font-family="sans-serif" font-size="14" lengthAdjust="spacing" textLength="181" x="760" y="498.6339">country_code: varchar(10)</text><ellipse cx="751" cy="511.5841" fill="#84BE84" rx="3" ry="3" style="stroke:#038048;stroke-width:1.0;"/><text fill="#FFFFFF" font-family="sans-serif" font-size="14" lengthAdjust="spacing" textLength="156" x="760" y="514.9307">category: varchar(255)</text><ellipse cx="751" cy="527.8809" fill="#84BE84" rx="3" ry="3" style="stroke:#038048;stroke-width:1.0;"/><text fill="#FFFFFF" font-family="sans-serif" font-size="14" lengthAdjust="spacing" textLength="138" x="760" y="531.2276">image: varchar(100)</text></g><!--class property_property_favorited--><g id="elem_property_property_favorited"><rect codeLine="54" fill="#313139" height="96.8906" id="property_property_favorited" rx="2.5" ry="2.5" style="stroke:#E7E7E7;stroke-width:0.5;" width="221" x="561.5" y="55.89"/><ellipse cx="576.5" cy="71.89" fill="#2E5233" rx="11" ry="11" style="stroke:#E7E7E7;stroke-width:1.0;"/><path d="M579.4688,77.5306 Q578.8906,77.8275 578.25,77.9681 Q577.6094,78.1244 576.9063,78.1244 Q574.4063,78.1244 573.0781,76.4837 Q571.7656,74.8275 571.7656,71.7025 Q571.7656,68.5775 573.0781,66.9212 Q574.4063,65.265 576.9063,65.265 Q577.6094,65.265 578.25,65.4212 Q578.9063,65.5775 579.4688,65.8744 L579.4688,68.5931 Q578.8438,68.015 578.25,67.7494 Q577.6563,67.4681 577.0313,67.4681 Q575.6875,67.4681 575,68.5462 Q574.3125,69.6087 574.3125,71.7025 Q574.3125,73.7962 575,74.8744 Q575.6875,75.9369 577.0313,75.9369 Q577.6563,75.9369 578.25,75.6712 Q578.8438,75.39 579.4688,74.8119 L579.4688,77.5306 Z " fill="#FFFFFF"/><text fill="#FFFFFF" font-family="sans-serif" font-size="14" lengthAdjust="spacing" textLength="189" x="590.5" y="76.7367">property_property_favorited</text><line style="stroke:#E7E7E7;stroke-width:0.5;" x1="562.5" x2="781.5" y1="87.89" y2="87.89"/><ellipse cx="572.5" cy="101.5384" fill="none" rx="3" ry="3" style="stroke:#038048;stroke-width:1.0;"/><text fill="#FFFFFF" font-family="sans-serif" font-size="14" lengthAdjust="spacing" textLength="59" x="581.5" y="104.8851">id: bigint</text><ellipse cx="572.5" cy="117.8353" fill="none" rx="3" ry="3" style="stroke:#038048;stroke-width:1.0;"/><text fill="#FFFFFF" font-family="sans-serif" font-size="14" lengthAdjust="spacing" textLength="116" x="581.5" y="121.182">property_id: uuid</text><ellipse cx="572.5" cy="134.1322" fill="none" rx="3" ry="3" style="stroke:#038048;stroke-width:1.0;"/><text fill="#FFFFFF" font-family="sans-serif" font-size="14" lengthAdjust="spacing" textLength="89" x="581.5" y="137.4789">user_id: uuid</text><line style="stroke:#E7E7E7;stroke-width:0.5;" x1="562.5" x2="781.5" y1="144.7806" y2="144.7806"/></g><!--class property_reservation--><g id="elem_property_reservation"><rect codeLine="60" fill="#313139" height="194.6719" id="property_reservation" rx="2.5" ry="2.5" style="stroke:#E7E7E7;stroke-width:0.5;" width="286" x="846" y="7"/><ellipse cx="913.75" cy="23" fill="#2E5233" rx="11" ry="11" style="stroke:#E7E7E7;stroke-width:1.0;"/><path d="M916.7188,28.6406 Q916.1406,28.9375 915.5,29.0781 Q914.8594,29.2344 914.1563,29.2344 Q911.6563,29.2344 910.3281,27.5938 Q909.0156,25.9375 909.0156,22.8125 Q909.0156,19.6875 910.3281,18.0313 Q911.6563,16.375 914.1563,16.375 Q914.8594,16.375 915.5,16.5313 Q916.1563,16.6875 916.7188,16.9844 L916.7188,19.7031 Q916.0938,19.125 915.5,18.8594 Q914.9063,18.5781 914.2813,18.5781 Q912.9375,18.5781 912.25,19.6563 Q911.5625,20.7188 911.5625,22.8125 Q911.5625,24.9063 912.25,25.9844 Q912.9375,27.0469 914.2813,27.0469 Q914.9063,27.0469 915.5,26.7813 Q916.0938,26.5 916.7188,25.9219 L916.7188,28.6406 Z " fill="#FFFFFF"/><text fill="#FFFFFF" font-family="sans-serif" font-size="14" lengthAdjust="spacing" textLength="142" x="934.25" y="27.8467">property_reservation</text><line style="stroke:#E7E7E7;stroke-width:0.5;" x1="847" x2="1131" y1="39" y2="39"/><ellipse cx="857" cy="52.6484" fill="none" rx="3" ry="3" style="stroke:#038048;stroke-width:1.0;"/><text fill="#FFFFFF" font-family="sans-serif" font-size="14" lengthAdjust="spacing" textLength="51" x="866" y="55.9951">id: uuid</text><ellipse cx="857" cy="68.9453" fill="none" rx="3" ry="3" style="stroke:#038048;stroke-width:1.0;"/><text fill="#FFFFFF" font-family="sans-serif" font-size="14" lengthAdjust="spacing" textLength="109" x="866" y="72.292">start_date: date</text><ellipse cx="857" cy="85.2422" fill="none" rx="3" ry="3" style="stroke:#038048;stroke-width:1.0;"/><text fill="#FFFFFF" font-family="sans-serif" font-size="14" lengthAdjust="spacing" textLength="105" x="866" y="88.5889">end_date: date</text><ellipse cx="857" cy="101.5391" fill="none" rx="3" ry="3" style="stroke:#038048;stroke-width:1.0;"/><text fill="#FFFFFF" font-family="sans-serif" font-size="14" lengthAdjust="spacing" textLength="182" x="866" y="104.8857">number_of_nights: integer</text><ellipse cx="857" cy="117.8359" fill="none" rx="3" ry="3" style="stroke:#038048;stroke-width:1.0;"/><text fill="#FFFFFF" font-family="sans-serif" font-size="14" lengthAdjust="spacing" textLength="106" x="866" y="121.1826">guests: integer</text><ellipse cx="857" cy="134.1328" fill="none" rx="3" ry="3" style="stroke:#038048;stroke-width:1.0;"/><text fill="#FFFFFF" font-family="sans-serif" font-size="14" lengthAdjust="spacing" textLength="195" x="866" y="137.4795">total_price: double precision</text><ellipse cx="857" cy="150.4297" fill="none" rx="3" ry="3" style="stroke:#038048;stroke-width:1.0;"/><text fill="#FFFFFF" font-family="sans-serif" font-size="14" lengthAdjust="spacing" textLength="260" x="866" y="153.7764">created_at: timestamp with time zone</text><ellipse cx="857" cy="166.7266" fill="none" rx="3" ry="3" style="stroke:#038048;stroke-width:1.0;"/><text fill="#FFFFFF" font-family="sans-serif" font-size="14" lengthAdjust="spacing" textLength="134" x="866" y="170.0732">created_by_id: uuid</text><ellipse cx="857" cy="183.0234" fill="none" rx="3" ry="3" style="stroke:#038048;stroke-width:1.0;"/><text fill="#FFFFFF" font-family="sans-serif" font-size="14" lengthAdjust="spacing" textLength="116" x="866" y="186.3701">property_id: uuid</text><line style="stroke:#E7E7E7;stroke-width:0.5;" x1="847" x2="1131" y1="193.6719" y2="193.6719"/></g><!--class useraccount_user--><g id="elem_useraccount_user"><rect codeLine="72" fill="#313139" height="210.9688" id="useraccount_user" rx="2.5" ry="2.5" style="stroke:#E7E7E7;stroke-width:0.5;" width="293" x="510.5" y="615.53"/><ellipse cx="590.25" cy="631.53" fill="#2E5233" rx="11" ry="11" style="stroke:#E7E7E7;stroke-width:1.0;"/><path d="M593.2188,637.1706 Q592.6406,637.4675 592,637.6081 Q591.3594,637.7644 590.6563,637.7644 Q588.1563,637.7644 586.8281,636.1238 Q585.5156,634.4675 585.5156,631.3425 Q585.5156,628.2175 586.8281,626.5613 Q588.1563,624.905 590.6563,624.905 Q591.3594,624.905 592,625.0613 Q592.6563,625.2175 593.2188,625.5144 L593.2188,628.2331 Q592.5938,627.655 592,627.3894 Q591.4063,627.1081 590.7813,627.1081 Q589.4375,627.1081 588.75,628.1863 Q588.0625,629.2488 588.0625,631.3425 Q588.0625,633.4363 588.75,634.5144 Q589.4375,635.5769 590.7813,635.5769 Q591.4063,635.5769 592,635.3113 Q592.5938,635.03 593.2188,634.4519 L593.2188,637.1706 Z " fill="#FFFFFF"/><text fill="#FFFFFF" font-family="sans-serif" font-size="14" lengthAdjust="spacing" textLength="125" x="610.75" y="636.3767">useraccount_user</text><line style="stroke:#E7E7E7;stroke-width:0.5;" x1="511.5" x2="802.5" y1="647.53" y2="647.53"/><ellipse cx="521.5" cy="661.1784" fill="none" rx="3" ry="3" style="stroke:#038048;stroke-width:1.0;"/><text fill="#FFFFFF" font-family="sans-serif" font-size="14" lengthAdjust="spacing" textLength="51" x="530.5" y="664.5251">id: uuid</text><ellipse cx="521.5" cy="677.4753" fill="none" rx="3" ry="3" style="stroke:#038048;stroke-width:1.0;"/><text fill="#FFFFFF" font-family="sans-serif" font-size="14" lengthAdjust="spacing" textLength="123" x="530.5" y="680.822">is_active: boolean</text><ellipse cx="521.5" cy="693.7722" fill="none" rx="3" ry="3" style="stroke:#038048;stroke-width:1.0;"/><text fill="#FFFFFF" font-family="sans-serif" font-size="14" lengthAdjust="spacing" textLength="154" x="530.5" y="697.1189">is_superuser: boolean</text><ellipse cx="521.5" cy="710.0691" fill="none" rx="3" ry="3" style="stroke:#038048;stroke-width:1.0;"/><text fill="#FFFFFF" font-family="sans-serif" font-size="14" lengthAdjust="spacing" textLength="112" x="530.5" y="713.4157">is_staff: boolean</text><ellipse cx="521.5" cy="726.3659" fill="none" rx="3" ry="3" style="stroke:#038048;stroke-width:1.0;"/><text fill="#FFFFFF" font-family="sans-serif" font-size="14" lengthAdjust="spacing" textLength="267" x="530.5" y="729.7126">date_joined: timestamp with time zone</text><ellipse cx="521.5" cy="742.6628" fill="none" rx="3" ry="3" style="stroke:#038048;stroke-width:1.0;"/><text fill="#FFFFFF" font-family="sans-serif" font-size="14" lengthAdjust="spacing" textLength="251" x="530.5" y="746.0095">last_login: timestamp with time zone</text><line style="stroke:#E7E7E7;stroke-width:0.5;" x1="511.5" x2="802.5" y1="753.3113" y2="753.3113"/><ellipse cx="521.5" cy="766.9597" fill="#84BE84" rx="3" ry="3" style="stroke:#038048;stroke-width:1.0;"/><text fill="#FFFFFF" font-family="sans-serif" font-size="14" lengthAdjust="spacing" textLength="163" x="530.5" y="770.3064">password: varchar(128)</text><ellipse cx="521.5" cy="783.2566" fill="#84BE84" rx="3" ry="3" style="stroke:#038048;stroke-width:1.0;"/><text fill="#FFFFFF" font-family="sans-serif" font-size="14" lengthAdjust="spacing" textLength="132" x="530.5" y="786.6032">email: varchar(254)</text><ellipse cx="521.5" cy="799.5534" fill="#84BE84" rx="3" ry="3" style="stroke:#038048;stroke-width:1.0;"/><text fill="#FFFFFF" font-family="sans-serif" font-size="14" lengthAdjust="spacing" textLength="135" x="530.5" y="802.9001">name: varchar(255)</text><ellipse cx="521.5" cy="815.8503" fill="#84BE84" rx="3" ry="3" style="stroke:#038048;stroke-width:1.0;"/><text fill="#FFFFFF" font-family="sans-serif" font-size="14" lengthAdjust="spacing" textLength="137" x="530.5" y="819.197">avatar: varchar(100)</text></g><!--link account_emailaddress to useraccount_user--><g id="link_account_emailaddress_useraccount_user"><path codeLine="86" d="M1261.16,473.68 C1241.43,495.42 1218.22,519.11 1195,538.53 C1083.1,632.14 920.77,678.17 803.72,700.35 " fill="none" id="account_emailaddress-useraccount_user" style="stroke:#E7E7E7;stroke-width:1.0;"/><text fill="#FFFFFF" font-family="sans-serif" font-size="13" lengthAdjust="spacing" textLength="46" x="1147" y="581.5969">user_id</text><text fill="#FFFFFF" font-family="sans-serif" font-size="13" lengthAdjust="spacing" textLength="8" x="1247.1953" y="493.2383">1</text><text fill="#FFFFFF" font-family="sans-serif" font-size="13" lengthAdjust="spacing" textLength="8" x="811.4915" y="695.9681">n</text></g><!--link account_emailconfirmation to account_emailaddress--><g id="link_account_emailconfirmation_account_emailaddress"><path codeLine="87" d="M1315,169.44 C1315,220.73 1315,292.32 1315,343.59 " fill="none" id="account_emailconfirmation-account_emailaddress" style="stroke:#E7E7E7;stroke-width:1.0;"/><text fill="#FFFFFF" font-family="sans-serif" font-size="13" lengthAdjust="spacing" textLength="111" x="1316" y="244.7369">email_address_id</text><text fill="#FFFFFF" font-family="sans-serif" font-size="13" lengthAdjust="spacing" textLength="8" x="1306.5875" y="189.0014">1</text><text fill="#FFFFFF" font-family="sans-serif" font-size="13" lengthAdjust="spacing" textLength="8" x="1306.5625" y="332.7331">n</text></g><!--link chat_conversation_users to chat_conversation--><g id="link_chat_conversation_users_chat_conversation"><path codeLine="88" d="M79.45,457.37 C61.19,493.18 44.02,543.1 60,585.53 C72.48,618.67 97.24,648.96 120.88,672.37 " fill="none" id="chat_conversation_users-chat_conversation" style="stroke:#E7E7E7;stroke-width:1.0;"/><text fill="#FFFFFF" font-family="sans-serif" font-size="13" lengthAdjust="spacing" textLength="100" x="61" y="581.5969">conversation_id</text><text fill="#FFFFFF" font-family="sans-serif" font-size="13" lengthAdjust="spacing" textLength="8" x="66.9417" y="477.0064">n</text><text fill="#FFFFFF" font-family="sans-serif" font-size="13" lengthAdjust="spacing" textLength="8" x="104.285" y="661.5508">1</text></g><!--link chat_conversation_users to useraccount_user--><g id="link_chat_conversation_users_useraccount_user"><path codeLine="89" d="M131.84,457.25 C153.35,497.2 189.24,552.81 236,585.53 C276.11,613.61 295.2,601.15 342,615.53 C397.08,632.45 457.19,652.09 510,669.75 " fill="none" id="chat_conversation_users-useraccount_user" style="stroke:#E7E7E7;stroke-width:1.0;"/><text fill="#FFFFFF" font-family="sans-serif" font-size="13" lengthAdjust="spacing" textLength="46" x="237" y="581.5969">user_id</text><text fill="#FFFFFF" font-family="sans-serif" font-size="13" lengthAdjust="spacing" textLength="8" x="126.4894" y="477.2216">n</text><text fill="#FFFFFF" font-family="sans-serif" font-size="13" lengthAdjust="spacing" textLength="8" x="494.6859" y="663.9737">1</text></g><!--link chat_conversationmessage to chat_conversation--><g id="link_chat_conversationmessage_chat_conversation"><path codeLine="90" d="M375.07,481.99 C326.57,540.57 259.63,621.41 217.6,672.19 " fill="none" id="chat_conversationmessage-chat_conversation" style="stroke:#E7E7E7;stroke-width:1.0;"/><text fill="#FFFFFF" font-family="sans-serif" font-size="13" lengthAdjust="spacing" textLength="100" x="300" y="581.5969">conversation_id</text><text fill="#FFFFFF" font-family="sans-serif" font-size="13" lengthAdjust="spacing" textLength="8" x="361.1765" y="501.52">n</text><text fill="#FFFFFF" font-family="sans-serif" font-size="13" lengthAdjust="spacing" textLength="8" x="214.6063" y="661.3455">1</text></g><!--link chat_conversationmessage to useraccount_user--><g id="link_chat_conversationmessage_useraccount_user"><path codeLine="91" d="M417.66,481.81 C413.48,515.36 414.44,554.58 432,585.53 C450.08,617.4 479.03,642.52 510.24,661.99 " fill="none" id="chat_conversationmessage-useraccount_user" style="stroke:#E7E7E7;stroke-width:1.0;"/><text fill="#FFFFFF" font-family="sans-serif" font-size="13" lengthAdjust="spacing" textLength="89" x="433" y="581.5969">created_by_id</text><text fill="#FFFFFF" font-family="sans-serif" font-size="13" lengthAdjust="spacing" textLength="8" x="407.626" y="501.5758">n</text><text fill="#FFFFFF" font-family="sans-serif" font-size="13" lengthAdjust="spacing" textLength="8" x="494.4664" y="655.6302">1</text></g><!--link chat_conversationmessage to useraccount_user--><g id="link_chat_conversationmessage_useraccount_user"><path codeLine="92" d="M486.77,481.99 C515.08,521.58 550.67,571.34 581.98,615.12 " fill="none" id="chat_conversationmessage-useraccount_user-1" style="stroke:#E7E7E7;stroke-width:1.0;"/><text fill="#FFFFFF" font-family="sans-serif" font-size="13" lengthAdjust="spacing" textLength="66" x="561" y="581.5969">sent_to_id</text><text fill="#FFFFFF" font-family="sans-serif" font-size="13" lengthAdjust="spacing" textLength="8" x="483.1738" y="501.52">n</text><text fill="#FFFFFF" font-family="sans-serif" font-size="13" lengthAdjust="spacing" textLength="8" x="568.6708" y="604.5727">1</text></g><!--link property_property to useraccount_user--><g id="link_property_property_useraccount_user"><path codeLine="93" d="M788.79,539 C770.26,564.45 751.04,590.85 733.19,615.37 " fill="none" id="property_property-useraccount_user" style="stroke:#E7E7E7;stroke-width:1.0;"/><text fill="#FFFFFF" font-family="sans-serif" font-size="13" lengthAdjust="spacing" textLength="69" x="765" y="581.5969">landlord_id</text><text fill="#FFFFFF" font-family="sans-serif" font-size="13" lengthAdjust="spacing" textLength="8" x="775.4191" y="558.6119">1</text><text fill="#FFFFFF" font-family="sans-serif" font-size="13" lengthAdjust="spacing" textLength="8" x="730.2659" y="604.4861">n</text></g><!--link property_property_favorited to useraccount_user--><g id="link_property_property_favorited_useraccount_user"><path codeLine="94" d="M670.84,153.06 C668.43,251.78 662.85,480.47 659.56,615.31 " fill="none" id="property_property_favorited-useraccount_user" style="stroke:#E7E7E7;stroke-width:1.0;"/><text fill="#FFFFFF" font-family="sans-serif" font-size="13" lengthAdjust="spacing" textLength="46" x="669" y="413.1669">user_id</text><text fill="#FFFFFF" font-family="sans-serif" font-size="13" lengthAdjust="spacing" textLength="8" x="662.1466" y="172.691">n</text><text fill="#FFFFFF" font-family="sans-serif" font-size="13" lengthAdjust="spacing" textLength="8" x="651.4587" y="604.4219">1</text></g><!--link property_property_favorited to property_property--><g id="link_property_property_favorited_property_property"><path codeLine="95" d="M705.43,153.23 C729.02,187.02 761.82,234.01 792.82,278.41 " fill="none" id="property_property_favorited-property_property" style="stroke:#E7E7E7;stroke-width:1.0;"/><text fill="#FFFFFF" font-family="sans-serif" font-size="13" lengthAdjust="spacing" textLength="72" x="773" y="244.7369">property_id</text><text fill="#FFFFFF" font-family="sans-serif" font-size="13" lengthAdjust="spacing" textLength="8" x="701.3847" y="172.8839">n</text><text fill="#FFFFFF" font-family="sans-serif" font-size="13" lengthAdjust="spacing" textLength="8" x="779.3752" y="267.5205">1</text></g><!--link property_reservation to useraccount_user--><g id="link_property_reservation_useraccount_user"><path codeLine="96" d="M1034.55,201.85 C1071.34,295.22 1107.38,437.12 1043,538.53 C990.51,621.21 889.24,666.9 803.6,691.75 " fill="none" id="property_reservation-useraccount_user" style="stroke:#E7E7E7;stroke-width:1.0;"/><text fill="#FFFFFF" font-family="sans-serif" font-size="13" lengthAdjust="spacing" textLength="89" x="1080" y="413.1669">created_by_id</text><text fill="#FFFFFF" font-family="sans-serif" font-size="13" lengthAdjust="spacing" textLength="8" x="1029.6013" y="221.6337">n</text><text fill="#FFFFFF" font-family="sans-serif" font-size="13" lengthAdjust="spacing" textLength="8" x="811.3653" y="686.9247">1</text></g><!--link property_reservation to property_property--><g id="link_property_reservation_property_property"><path codeLine="97" d="M955.17,201.81 C946.63,226.17 937.32,252.72 928.31,278.41 " fill="none" id="property_reservation-property_property" style="stroke:#E7E7E7;stroke-width:1.0;"/><text fill="#FFFFFF" font-family="sans-serif" font-size="13" lengthAdjust="spacing" textLength="72" x="944" y="244.7369">property_id</text><text fill="#FFFFFF" font-family="sans-serif" font-size="13" lengthAdjust="spacing" textLength="8" x="944.3919" y="221.5908">n</text><text fill="#FFFFFF" font-family="sans-serif" font-size="13" lengthAdjust="spacing" textLength="8" x="922.6982" y="267.5205">1</text></g><!--SRC=[fLNRRfmm47tdAz0-DQeYDL5JLVoCPUo1TGisiWVIRTL_xvW2osAR9Sa-h636FfmvSnCDToxdGfXU8uEMguPBQO6CVxASVfzp9OjSQOGQx6GPZnNvmAquS_lf-UNhm-GPmAfA0TqeZMc0wydUMTLoUzcQUmUMUVo-LpBxcsKYf2EChfHjEIgZTpW92npzXr6ru92tNVwgy3o-vh-DXkcS0urt3_s4opMyRqjq8nyswSFM71RgT0CPKIOXN4Xv3FE6B-FtsRH6ZgBkdqrJO5xcstoMgYRgCvNrsGtDH8Q2Rn0fnsj8HLiQIOeY_CAtXxz7RuOfBrkFppD34-7UMTE1nGkR7rAaKM43wp9_cGj1WXDMTPxHJLHKvW8OWJAjwZDkQxG4QOrfNM3dU8uwwfw42QnZSzXBbDdaezp85VMdBukVvAfDuZBrQ7rpwthjUBeQhcLZh3oYFAluOAmYv7HrBcUFLUPod7eKxB3RWnI5HIOfiYBt_tERQnaQTT-Mz45J_K_jmLIXGTwmiIm8pVHb0yGGX794wnsja2ptKAL54I_KF57zyw96HzvNojGguy_V7-9IfKU-vcsyIJY9pssqd9HZNA0QOBiGoE5w2iJpZFcGLzNMxfF4VXYb3qn_4WHPOwYyzYTf5js8fwTJ_lYOd_Gf5BMO2p9BRw_L_IX-4MoOB3NCFOQ78iHmvHJRcNa4PYUYvBJ_A8i8JeJ6JTM_5-Iw3x9m0UmdTZNHihqHTapCWmWXoMBTv5bqphr5nti0TmZy0m00]--></g></svg>